# xmcd CD database file generated by OrangeCD 6.0
#
# Track frame offsets:
#	150
#	17766
#	35989
#	49277
#	62222
#	98219
#	111423
#	129538
#	159367
#
# Disc length: 2305 seconds
#
# Revision: 0
# Processed by: cddbd v1.5.2PL0 Copyright (c) Steve Scherf et al.
# Submitted via: OrangeCD 6.0
#
DISCID=7f08ff09
DTITLE=Eric Clapton - Blues
DYEAR=1999
DGENRE=
TTITLE0=Mean old World
TTITLE1=The Sky is Crying
TTITLE2=Cryin'
TTITLE3=Alberta
TTITLE4=Early in the morning
TTITLE5=Give me strenght
TTITLE6=County Jail Blues
TTITLE7=Floating Bridge
TTITLE8=Blow wind blow
EXTD=
EXTT0=
EXTT1=
EXTT2=
EXTT3=
EXTT4=
EXTT5=
EXTT6=
EXTT7=
EXTT8=
PLAYORDER=
